<?xml version="1.0" encoding="UTF-8"?>
<!DOCTYPE svg PUBLIC "-//W3C//DTD SVG 1.1//EN" "http://www.w3.org/Graphics/SVG/1.1/DTD/svg11.dtd">
<!-- Creator: CorelDRAW X7 -->
<svg xmlns="http://www.w3.org/2000/svg" xml:space="preserve" width="240px" height="240px" version="1.1" style="shape-rendering:geometricPrecision; text-rendering:geometricPrecision; image-rendering:optimizeQuality; fill-rule:evenodd; clip-rule:evenodd"
viewBox="0 0 240 240"
 xmlns:xlink="http://www.w3.org/1999/xlink">
 <defs>
  <style type="text/css">
   <![CDATA[
    .fil7 {fill:none}
    .fil2 {fill:#FEFEFE}
    .fil3 {fill:#D1A764}
    .fil0 {fill:#F08519}
    .fil5 {fill:#ED751E}
    .fil1 {fill:#00A2E9}
    .fil4 {fill:#009B4C}
    .fil6 {fill:black}
    .fil9 {fill:#332C2B;fill-rule:nonzero}
    .fil8 {fill:black;fill-rule:nonzero}
   ]]>
  </style>
 </defs>
 <g id="Layer_x0020_1">
  <metadata id="CorelCorpID_0Corel-Layer"/>
  <g id="_2146393093792">
   <path class="fil0" d="M120 0c66,0 120,54 120,120 0,66 -54,120 -120,120 -66,0 -120,-54 -120,-120 0,-66 54,-120 120,-120zm0 6c31,0 59,13 80,33 20,21 33,49 33,80 0,32 -13,60 -33,81 -21,20 -49,33 -80,33 -31,0 -59,-13 -80,-33 -20,-21 -33,-49 -33,-81 0,-31 13,-59 33,-80 21,-20 49,-33 80,-33zm79 34c-20,-20 -48,-33 -79,-33 -31,0 -59,13 -79,33 -20,20 -33,48 -33,79 0,32 13,60 33,80 20,20 48,33 79,33 31,0 59,-13 79,-33 20,-20 33,-48 33,-80 0,-31 -13,-59 -33,-79z"/>
   <path class="fil1" d="M120 4c64,0 116,52 116,116 0,64 -52,116 -116,116 -64,0 -116,-52 -116,-116 0,-64 52,-116 116,-116zm0 2c31,0 59,13 80,33 20,21 33,49 33,80 0,32 -13,60 -33,81 -21,20 -49,33 -80,33 -31,0 -59,-13 -80,-33 -20,-21 -33,-49 -33,-81 0,-31 13,-59 33,-80 21,-20 49,-33 80,-33zm79 34c-20,-20 -48,-33 -79,-33 -31,0 -59,13 -79,33 -20,20 -33,48 -33,79 0,32 13,60 33,80 20,20 48,33 79,33 31,0 59,-13 79,-33 20,-20 33,-48 33,-80 0,-31 -13,-59 -33,-79z"/>
   <path class="fil2" d="M120 6c31,0 59,13 80,33 20,21 33,49 33,80 0,32 -13,60 -33,81 -21,20 -49,33 -80,33 -31,0 -59,-13 -80,-33 -20,-21 -33,-49 -33,-81 0,-31 13,-59 33,-80 21,-20 49,-33 80,-33z"/>
   <path class="fil3" d="M231 134c0,4 -1,7 -1,10 -6,1 -16,0 -26,-1 4,7 12,10 23,10 0,2 -1,4 -2,6 -23,0 -34,-16 -56,-13 5,6 14,7 21,12 10,6 21,11 31,11 -1,2 -2,3 -3,5 -3,1 -6,1 -10,1 2,2 3,5 5,8 -3,4 -6,8 -9,11 -12,-7 -26,-10 -41,-12 8,13 20,18 36,18 -2,2 -5,4 -8,6 -3,-1 -6,-1 -9,-2 0,3 1,5 4,7 -2,1 -3,2 -4,3 -8,-8 -18,-15 -26,-22 -9,-10 -11,-24 -26,-30 -4,20 8,28 22,38 8,6 15,12 22,18 -2,1 -3,2 -5,3 -3,-3 -6,-6 -10,-9 2,4 3,8 4,12 -2,0 -3,1 -5,2 -6,-13 -22,-18 -33,-32 -6,4 -7,13 -5,25 -7,-6 -12,-14 -11,-28 -11,3 -15,8 -14,14 1,8 13,13 15,27 -3,-1 -6,-1 -9,-1 -1,-7 -4,-13 -9,-18 -3,5 -4,10 -4,14 -3,0 -5,-1 -7,-2 2,-7 3,-14 -1,-16 -2,1 -10,7 -13,10 -3,-2 -6,-4 -9,-5 9,-6 16,-11 18,-15 0,-2 1,-5 -1,-6 -2,-1 -4,0 -7,0 -2,0 -4,0 -7,0 -9,0 -18,0 -21,5 -2,-2 -3,-3 -5,-5 1,-2 3,-3 5,-5 -3,0 -6,0 -8,1 -2,-2 -3,-4 -5,-6 3,-1 6,0 8,-1 -4,-1 -8,-2 -10,-3 -2,-3 -4,-6 -6,-10 28,12 55,18 76,-7 -20,10 -51,-3 -76,7 -1,-2 -2,-5 -3,-7 7,-1 13,-4 17,-9 -7,0 -14,-1 -20,1 -1,-2 -1,-4 -1,-5 3,-1 6,-1 9,-3 -4,-1 -9,-2 -11,-4 -1,-2 -1,-5 -1,-8 5,1 12,4 19,3 11,-1 23,-8 33,-8 5,0 12,0 16,1 6,0 11,2 15,2 11,-1 13,-6 17,-13l10 -1c4,0 10,-3 11,1 3,8 14,15 28,14 8,0 17,-6 28,-6 17,-1 19,10 45,7zm-175 24c-6,-6 -11,-7 -12,2 3,-3 8,0 12,-2zm39 -1c0,-8 -7,-7 -11,-2 4,0 9,0 11,2zm-6 -7c-19,-11 -32,-13 -37,-2 10,7 23,7 37,2zm23 15c-12,5 -17,14 -18,26 11,-2 17,-10 18,-26zm27 -10c15,1 26,7 32,20 -14,0 -25,-6 -32,-20zm34 11c12,1 21,8 28,22 -12,-1 -21,-9 -28,-22z"/>
   <path class="fil4" d="M231 103c-13,12 -27,14 -39,15 -29,1 -52,-15 -55,5 -11,-2 -24,2 -36,0 1,-9 -5,-11 -14,-10 -8,1 -17,4 -27,5 -17,2 -37,-1 -51,-15 1,-3 1,-6 2,-9 6,6 13,11 20,12 -7,-6 -9,-15 -18,-19 0,-2 1,-3 1,-5 4,2 8,4 11,7 4,4 7,9 11,13l1 -11c-7,-7 -14,-12 -22,-11 1,-2 2,-4 3,-6 6,1 13,4 20,11l0 -5c-6,-5 -11,-11 -14,-17 1,-3 2,-5 4,-7 3,7 8,13 13,16l6 -5c-6,-4 -11,-9 -14,-18 2,-2 4,-4 6,-7 1,6 5,11 9,15l11 -10c-6,-3 -12,-6 -15,-10 1,-1 3,-3 5,-4 3,3 8,5 14,6l7 -4c-3,-4 -6,-8 -8,-12 2,-1 4,-2 6,-3l5 7c0,-3 0,-6 0,-9 2,-1 4,-2 6,-3 0,3 0,9 0,14l11 -6c-4,-3 -7,-6 -9,-9 3,-1 5,-2 7,-2 2,2 5,5 10,8l10 -1c1,-3 -1,-7 -4,-11 3,0 7,-1 11,-1 3,3 5,6 5,9 1,-4 2,-7 5,-9 3,0 7,1 10,1 -2,2 -4,5 -5,8l8 2c2,-4 5,-6 8,-8 4,1 8,2 12,4 -5,2 -9,5 -11,8l15 9c5,-3 11,-4 15,-8 2,1 4,2 7,4 -3,3 -7,6 -12,8l5 4c4,-3 12,-1 16,-4 2,1 4,3 6,5l0 0c-5,5 -12,4 -17,6l8 10c3,-6 7,-10 13,-12 1,2 3,4 5,6 -5,1 -10,6 -15,13l2 3c6,-4 14,-5 21,-4 1,2 3,4 4,7 -9,-1 -17,-1 -22,3l4 15c8,-4 14,-9 19,-16 1,2 2,5 3,7 -6,7 -13,13 -21,17l0 10c10,-2 18,-6 25,-14 1,4 2,8 3,12z"/>
   <path class="fil1" d="M110 123l10 -5 11 4c-8,9 -3,17 10,18 7,1 18,-3 29,-4 3,-1 8,0 12,1 6,1 8,4 12,8 5,4 14,9 23,9 -10,1 -17,-3 -22,-7 -3,-2 -5,-5 -8,-6 -2,-2 -4,-2 -6,-2 -5,-1 -11,-1 -16,0 -4,1 -7,2 -10,3 -5,1 -10,1 -15,2 15,3 25,7 33,10 10,5 11,11 30,16 -14,-2 -18,-5 -23,-9 -3,-2 -6,-3 -10,-5 -11,-5 -23,-9 -42,-11 0,2 2,3 5,6 3,4 7,9 12,16 2,2 5,3 8,5 5,3 11,6 27,8 -12,0 -22,-3 -31,-8 4,4 6,9 9,13 4,4 10,8 14,12 -5,-2 -12,-6 -16,-10 -5,-5 -6,-10 -10,-15 -8,-8 -15,-17 -23,-26 -2,14 -3,26 -4,39 0,-13 -1,-27 -4,-39 -4,8 -9,14 -14,20 -8,22 -21,36 -36,47 13,-13 25,-26 32,-43 -18,15 -39,18 -61,15 33,-1 62,-8 74,-41 -6,0 -14,-1 -20,-3 -7,-2 -13,-5 -21,-5 -5,0 -12,0 -16,3 -3,2 -4,5 -7,7 -4,2 -13,3 -19,-1 8,2 13,2 17,0 3,-2 5,-6 9,-8 6,-3 16,-5 25,-3 11,3 18,6 24,5 12,-1 15,-11 8,-16z"/>
   <path class="fil5" d="M36 113c-1,-5 -1,-9 -1,-13 0,-47 38,-85 85,-85 47,0 85,38 85,85 0,4 0,8 -1,13 -31,9 -64,-17 -70,7 -9,-2 -9,-12 -8,-30 1,0 2,0 2,0 26,21 48,-20 14,-28 18,-11 4,-29 -10,-24 5,-26 -31,-21 -24,0 -17,-5 -26,16 -10,24 -34,7 -13,49 15,27 3,22 -1,29 -7,31 -7,-24 -33,0 -70,-7z"/>
   <path class="fil6" d="M113 123c-18,20 -24,8 -43,8 -20,0 -28,16 -61,7 0,-3 -1,-7 -1,-11 16,11 27,4 45,0 4,-1 11,-1 18,-1 5,1 11,3 16,3 8,1 14,-1 14,-6 9,-1 15,-5 15,-16l0 -26 -20 0c-1,0 0,-1 0,-1 13,-3 21,-11 20,-28 -10,3 -15,0 -18,-7 12,5 20,4 21,-8 -4,0 -7,-1 -9,-4 4,1 8,0 10,-4 2,3 5,5 10,4 -2,3 -5,4 -8,4 0,11 8,13 20,8 -3,8 -9,10 -18,7 0,15 6,25 21,28 0,0 0,1 0,1l-21 0 0 27c1,9 6,14 14,15 8,11 25,9 40,2 14,-6 28,12 54,1 0,4 -1,8 -1,11 -26,6 -34,-9 -49,-7 -11,1 -20,6 -28,6 -10,1 -18,-6 -26,-14 -7,9 -3,16 12,21 -4,-1 -8,-2 -13,-4 -1,-1 -3,-2 -3,-1 -1,0 -2,4 -2,5 -2,5 -2,12 -2,19 0,-7 -1,-16 -2,-21 0,-1 -1,-3 -2,-4 -1,0 -4,2 -6,3 -3,1 -5,2 -8,2 4,-1 11,-4 13,-8 2,-4 1,-8 -2,-11z"/>
   <path class="fil7" d="M36 113c-6,-63 39,-97 84,-98 44,0 89,32 84,98"/>
   <path class="fil8" d="M35 113c0,-4 -1,-8 -1,-11 0,-26 9,-47 24,-62 14,-14 33,-23 53,-25 3,0 6,-1 9,-1 3,0 6,0 8,1 20,1 39,9 53,24 15,14 24,35 24,63 0,3 0,7 0,11l-2 -1c0,-3 0,-7 0,-10 0,-27 -9,-47 -23,-62 -14,-14 -33,-22 -52,-23 -3,0 -5,-1 -8,-1 -3,0 -6,1 -9,1 -19,2 -38,11 -52,25 -14,14 -23,34 -23,60 0,3 1,7 1,10l-2 1z"/>
   <path class="fil9" d="M101 119c6,1 9,-1 11,-6 2,-4 2,-12 1,-22 -10,6 -18,6 -24,2 -3,-2 -6,-4 -7,-8 -2,-3 -2,-7 -1,-10 2,-6 6,-11 15,-13 -4,-3 -7,-7 -7,-11 0,-2 0,-4 1,-6 1,-1 2,-3 3,-4 3,-4 8,-5 14,-4 -1,-6 0,-10 3,-13 3,-3 6,-4 9,-4 4,0 7,1 10,3 3,3 5,8 4,14 5,-1 10,1 14,3 1,2 3,3 3,5 1,2 2,4 1,6 0,4 -3,8 -8,11 9,1 14,6 16,11 1,4 1,8 -1,11 -1,4 -3,7 -7,9 -5,4 -14,4 -24,-3 0,10 -1,17 1,22 1,5 4,7 10,7l0 1c-6,0 -10,-2 -11,-8 -2,-5 -2,-13 -1,-23l0 -1 1 1c10,6 18,6 24,3 3,-2 5,-5 6,-8 2,-3 2,-7 1,-10 -2,-6 -7,-10 -17,-11l0 -1c6,-3 9,-7 9,-11 0,-2 0,-4 -1,-5 0,-2 -1,-3 -3,-5 -3,-2 -9,-4 -14,-2l-1 0 0 -1c2,-7 0,-11 -3,-14 -2,-2 -5,-3 -8,-3 -4,0 -7,2 -9,4 -3,2 -4,7 -2,13l0 1 -1 0c-6,-2 -11,-1 -14,3 -1,1 -2,2 -3,4 -1,2 -1,3 -1,5 0,4 3,8 9,11l-1 1c-9,2 -14,7 -16,12 -1,4 0,7 1,10 1,3 3,6 6,7 6,4 14,4 24,-3l1 -1 0 1c1,12 1,20 -1,25 -2,5 -6,7 -12,7l0 -2z"/>
  </g>
 </g>
</svg>
